<?xml version="1.0" standalone="no"?>
<!DOCTYPE svg PUBLIC "-//W3C//DTD SVG 1.0//EN" "http://www.w3.org/TR/2001/REC-SVG-20010904/DTD/svg10.dtd">
<svg xmlns="http://www.w3.org/2000/svg" xmlns:xlink="http://www.w3.org/1999/xlink" id="body_1" width="750" height="750">

<g transform="matrix(3.8909297 0 0 3.8909297 0 0)">
    <path d="M0 0L192.756 0L192.756 192.756L0 192.756L0 0z" stroke="none" fill="#FFFFFF" fill-rule="nonzero" />
    <path d="M60.734 155.432C 70.442 167.171 80.371 179.17601 96.378006 179.17601C 112.384 179.17601 122.31401 167.171 132.022 155.432C 133.73401 153.363 135.43901 151.30101 136.789 149.73601L136.789 149.73601L136.789 149.735L136.867 149.645L136.869 149.642L136.87001 149.64099C 148.86601 135.75499 150.393 115.68999 151.865 96.35999C 152.084 93.48899 152.30101 90.632996 152.52101 88.119995L152.52101 88.119995L152.54501 87.843994C 152.52501 64.79099 149.31102 46.376995 140.65201 33.695995C 132.134 21.218994 118.129005 14.178995 96.378006 13.583996C 74.62701 14.178996 60.621006 21.219995 52.103004 33.695995C 43.445004 46.375996 40.230003 64.78999 40.211006 87.843994C 40.442005 90.46099 40.667007 93.40199 40.892006 96.35999C 42.364006 115.689995 43.891006 135.756 55.887005 149.64099C 57.249004 151.21799 58.988007 153.31999 60.734005 155.43199L60.734005 155.43199L60.734 155.432zM96.378006 184.25201C 77.948006 184.25201 67.239006 171.30402 56.769005 158.64502C 55.1951 156.72925 53.59955 154.83209 51.982006 152.95302C 38.893005 137.80202 37.299007 116.875015 35.765007 96.71802C 35.55182 93.86151 35.32495 91.00731 35.084007 88.153015C 35.084007 63.932014 38.531006 44.522015 47.85801 30.861015C 57.34201 16.965015 72.684006 9.138016 96.31801 8.504015L96.31801 8.504015L96.43801 8.504015C 120.07301 9.138015 135.41402 16.965015 144.89902 30.859015C 154.22601 44.521015 157.67302 63.930016 157.67302 88.04701L157.67302 88.04701L157.67302 88.25501C 157.66425 88.34818 157.6559 88.441765 157.64803 88.53501C 157.39302 91.44201 157.19302 94.07301 156.99202 96.71701C 155.45802 116.87401 153.86502 137.80002 140.77502 152.95201L140.77502 152.95201L140.77202 152.949L140.77202 152.95001L140.77502 152.95201C 138.90103 155.12201 137.44702 156.88 135.98802 158.64401C 125.51702 171.30402 114.80802 184.25201 96.37802 184.25201z" stroke="none" fill="#000000" fill-rule="nonzero" />
    <path d="M96.378 181.714C 76.423996 181.714 65.736 164.959 53.934 151.297C 39.579 134.68 39.608997 110.235 37.646996 88.047C 37.646996 40.781 50.957996 12.2599945 96.37799 11.042C 141.79799 12.26 155.10799 40.781 155.10799 88.047C 153.14598 110.235 153.17598 134.68 138.82098 151.297C 127.01898 164.959 116.330986 181.71399 96.37798 181.71399L96.37798 181.71399L96.378 181.714z" stroke="none" fill="#CC2229" fill-rule="nonzero" />
    <path d="M60.874 21.115C 53.562 44.472 73.978 71.559 96.378006 101.442C 118.77701 71.559006 139.194 44.472 131.882 21.114998C 126.54401 17.316998 120.12 14.546998 112.451004 12.874998C 118.23 38.279 107.847 68.197 96.378006 101.442C 84.909004 68.198 74.524 38.279003 80.30401 12.875C 72.63601 14.547 66.212006 17.317 60.87401 21.115L60.87401 21.115L60.874 21.115zM96.397995 82.601L96.37699 82.627zM96.397995 82.601L96.506996 82.738L96.546 82.784996zM96.378 82.626C 95.106995 84.223 93.557 85.579 90.774 84.979996C 90.016 87.044 88.817 88.128 86.924 88.724C 87.16 90.284 86.597 91.498 85.319 91.957M96.378 82.626L96.488 82.762C 97.738 84.298004 99.28 85.561005 101.982 84.98C 102.740005 87.04401 103.939 88.128006 105.833 88.72401C 105.597 90.284004 106.159 91.49801 107.437 91.95701M96.379 69.03C 95.261 71.754 92.616 75.029 87.188995 73.854C 86.545 77.468994 83.84499 80.11099 80.33499 79.52599C 80.37699 81.79399 76.90999 85.661995 74.704994 85.58099M96.379 69.03C 97.496994 71.754 100.142 75.029 105.569 73.854C 106.213 77.468994 108.913 80.11099 112.423004 79.52599C 112.380005 81.79399 115.84801 85.661995 118.053 85.58099M96.379 52.684C 95.261 55.407997 88.491 60.427 83.063995 59.252C 82.42 62.867 75.36099 67.172 71.851 66.587C 71.894 68.854996 66.738 74.111 64.533 74.03M96.379 52.684C 97.496994 55.407997 104.267 60.427 109.694 59.252C 110.338 62.867 117.397 67.172 120.907 66.587C 120.864 68.854996 126.02 74.111 128.224 74.03M96.379 33.896C 96.022995 36.562 85.93 41.822998 79.492 41.485C 78.340996 44.972 66.853 51.812 63.996998 51.5C 63.719997 54.055 55.502 62.59 53.889 62.405M96.379 16.869C 95.298 18.834 84.127 23.872 78.748 24.559C 78.608 27.965 63.968002 37.197 59.747 36.804C 56.426003 41.435 49.891003 46.690002 45.402 47.176003M96.379 16.869003C 97.46 18.834003 108.631996 23.872004 114.009995 24.559004C 114.149994 27.965004 128.79 37.197002 133.01099 36.804005C 136.33199 41.435005 142.86699 46.690002 147.35698 47.176003M96.37898 33.896004C 96.734985 36.562004 106.82798 41.823006 113.26598 41.485004C 114.416985 44.972004 125.90498 51.811005 128.76099 51.500004C 129.03798 54.055004 137.25598 62.590004 138.86899 62.405003M82.697 12.394C 81.908 12.6710005 81.141 12.953 80.405 13.235C 73.152 18.34 66.014 20.303999 60.332 22.838C 57.64 26.592 52.45 32.68 48.190002 35.109M110.063 12.395C 110.850006 12.672001 111.618004 12.954 112.353004 13.236C 119.606 18.341 126.744 20.305 132.42601 22.839C 135.117 26.592001 140.30501 32.678 144.565 35.108M40.766 119.611C 54.836998 114.58 73.121 109.574 96.378 101.442M151.989 119.611C 137.919 114.58 119.634995 109.574 96.378 101.442M76.502 175.14401C 71.25 155.84401 87.218 126.12601 96.377 101.443016M60.76 159.46C 62.354 133.80301 78.861 124.283005 96.378 101.442M49.064 144.49701C 54.691998 122.20001 68.965 119.66901 96.377 101.44201M131.995 159.46C 130.402 133.80301 113.895 124.283005 96.37799 101.442M143.691 144.49701C 138.06299 122.20001 123.78999 119.66901 96.37799 101.44201M39.219 63.198C 53.49 72.198 72.256 85.832 96.378006 101.442M37.734 81.626C 52.179 85.833 71.408005 93.525 96.378006 101.442M38.698006 101.322C 53.031006 100.761 71.965004 101.92 96.378006 101.442M153.53601 63.198C 139.266 72.198 120.500015 85.832 96.378006 101.442M155.02101 81.626C 140.57602 85.833 121.34601 93.525 96.377014 101.442M154.05801 101.322C 139.725 100.761 120.791016 101.92 96.37801 101.442M96.37801 118.802L96.488014 118.666L96.50902 118.64zM96.37802 118.802C 95.10702 117.205 93.16002 115.898 90.37702 116.496C 89.62002 114.433 88.817024 113.396 86.92402 112.801C 87.16002 111.241005 86.597015 109.931 85.319016 109.472C 86.598015 109.931 87.16102 111.145 86.92402 112.704M96.37802 118.802C 97.649025 117.205 99.59602 115.898 102.37902 116.496C 103.136024 114.433 103.93902 113.396 105.83202 112.801C 105.59602 111.241005 106.15802 109.931 107.43602 109.472C 106.15802 109.931 105.59502 111.145 105.83202 112.704M96.37902 132.95801C 95.26102 130.23401 91.13902 126.27601 85.71102 127.450005C 85.067024 123.836006 82.401024 121.324005 78.89102 121.909004C 78.93402 119.64101 76.91102 116.326004 74.705025 116.407005M96.37903 147.39601C 95.26103 144.67201 86.356026 138.71901 80.928024 139.89401C 80.28403 136.279 73.33803 132.64601 69.828026 133.23102C 69.870026 130.96301 63.697025 124.846016 59.103027 125.97902M96.37903 163.74802C 96.023026 161.08202 83.20203 154.84302 76.76403 155.18102C 75.61303 151.69402 66.24703 145.83202 63.39103 146.14401C 64.55903 143.24 56.699028 133.98201 52.67703 134.74901C 52.43203 128.72202 46.040028 121.826004 41.73203 119.616005C 42.82703 113.301 41.71003 105.607 39.64303 101.281006C 39.36903 97.935005 38.680027 93.838005 37.78203 89.605M96.37903 176.824C 96.023026 174.157 82.02703 167.50601 75.58903 167.84401C 74.43803 164.35701 63.94803 156.414 61.091026 156.72601C 60.815025 154.17601 53.363026 145.64001 48.961025 144.322M48.898026 144.21301C 48.258026 142.18102 46.704025 138.59601 44.615025 134.94202M96.37903 132.95802C 97.497025 130.23402 101.619026 126.276024 107.04803 127.45002C 107.691025 123.83602 110.358025 121.32402 113.86703 121.90902C 113.82503 119.64102 115.84703 116.32602 118.053024 116.40702M96.37903 147.39603C 97.497025 144.67203 106.40203 138.71902 111.83003 139.89403C 112.47403 136.27902 119.421036 132.64603 122.93103 133.23103C 122.88803 130.96303 129.06203 124.84603 133.65604 125.979034M43.955 44.017C 45.571003 47.963997 47.766003 52.017 50.326 56.19C 47.766 52.017998 45.571 47.963997 43.955 44.017M96.378006 101.442C 96.3892 101.431145 96.40088 101.4208 96.41301 101.411C 61.230003 77.481 78.379 85.451996 96.378006 101.442M148.80101 44.017002C 147.18501 47.964 144.99 52.017002 142.43001 56.190002C 144.99 52.018 147.18501 47.964005 148.80101 44.017002M141.897 63.235C 131.52501 77.481 114.37601 85.451996 96.377 101.442M96.378 11.042L96.378 181.71399zM116.253 175.14398C 121.505 155.84398 105.537 126.12598 96.378 101.442986M96.379 163.74799C 96.735 161.08199 109.556 154.84299 115.993996 155.18098C 117.145 151.69398 126.510994 145.83199 129.36699 146.14398C 128.19899 143.23997 136.05899 133.98198 140.081 134.74898C 140.32599 128.72198 146.71799 121.82597 151.026 119.615974C 149.93001 113.30097 151.048 105.60697 153.115 101.280975C 153.389 97.93997 154.076 93.848976 154.972 89.62298M96.379 176.82397C 96.735 174.15697 110.730995 167.50598 117.169 167.84398C 118.319 164.35698 128.81 156.41397 131.666 156.72598C 131.942 154.17699 139.391 145.64398 143.794 144.32198M143.862 144.20497C 144.503 142.17297 146.052 138.59897 148.135 134.95197" stroke="#000000" stroke-width="1.098" fill="none" />
    <path d="M92.231 100.872C 81.485 80.204 61.917 77.696 45.229 46.397C 35.059 72.506 37.224 108.018 59.29 126.229996C 74.823 123.494995 85.202 114.032 92.231 100.871994L92.231 100.871994L92.231 100.872z" stroke="#000000" stroke-width="0.216" fill="#000000" fill-rule="nonzero" />
    <path d="M82.684 100.638C 75.427 88.339 59.08 83.472 49.45 68.497C 44.675 79.749 47.132 104.236 61.504 115.384C 69.896 116.693 81.279 110.733 82.684006 100.638L82.684006 100.638L82.684 100.638z" stroke="#000000" stroke-width="0.216" fill="#FFFFFF" fill-rule="nonzero" />
    <path d="M100.71 100.872C 111.456 80.204 131.023 77.696 147.713 46.397003C 157.882 72.506004 155.718 108.018005 133.651 126.23C 118.118004 123.495 107.738 114.032005 100.71 100.872z" stroke="#000000" stroke-width="0.216" fill="#000000" fill-rule="nonzero" />
    <path d="M110.257 100.638C 117.51501 88.339005 133.86101 83.472 143.491 68.497C 148.26599 79.749 145.80899 104.236 131.437 115.384C 123.045 116.693 111.661995 110.733 110.256996 100.638L110.256996 100.638L110.257 100.638z" stroke="#000000" stroke-width="0.216" fill="#FFFFFF" fill-rule="nonzero" />
</g>
</svg>